# xmcd
#
# Track frame offsets:
#	150
#	28931
#	46650
#	60906
#	80850
#	100306
#	118351
#	130322
#	142224
#	159468
#	175347
#	189791
#	203075
#	227108
#
# Disc length: 3271 seconds
#
# Revision: 0
# Processed by: cddbd v1.5.2PL0 Copyright (c) Steve Scherf et al.
# Submitted via: EasyCDDAExtractor 16.0.6.1
#
DISCID=c50cc50e
DTITLE=Δασκαλάκης Μιχάλης - Ο ρεμπέτης Μιχάλης Δασκαλάκης 2
DYEAR=2008
DGENRE=Ρεμπέτικη
TTITLE0=Δασκαλάκης Μιχάλης-Σπυρόπουλος Νίκος - Το μινόρε της αυγής [Σπ. Περιστ
TTITLE0=έρης-Μίνως Μάτσας]
TTITLE1=Δασκαλάκης Μιχάλης-Σπυρόπουλος Νίκος - Στον Πειραιά συννέφιασε [Γιώργο
TTITLE1=ς Μητσάκης]
TTITLE2=Δασκαλάκης Μιχάλης-Σπυρόπουλος Νίκος - Το κομπολογάκι [Γιώργος Μητσάκη
TTITLE2=ς]
TTITLE3=Δασκαλάκης Μιχάλης-Σπυρόπουλος Νίκος - Δυό πόρτες έχει η ζωή [Στέλιος 
TTITLE3=Καζαντζίδης]
TTITLE4=Δασκαλάκης Μιχάλης - Το βουνό [Λουκάς Νταράλας-Βαγγ. Πρέκας]
TTITLE5=Δασκαλάκης Μιχάλης-Σπυρόπουλος Νίκος - Ο ψαράς [Γιώργος Μητσάκης]
TTITLE6=Δασκαλάκης Μιχάλης-Σπυρόπουλος Νίκος - Ο μπουφετζής [διασκ. Γ. Παπαϊωά
TTITLE6=ννου-Δημ. Σέμσης]
TTITLE7=Δασκαλάκης Μιχάλης-Σπυρόπουλος Νίκος - Τρελλό κορίτσι [Μανώλης Χιώτης]
TTITLE8=Δασκαλάκης Μιχάλης-Σπυρόπουλος Νίκος - Ζούλα σε μιά βάρκα μπήκα (Ζεϊμπ
TTITLE8=έκικο σπανιόλο)[Γ. Μπάτης]
TTITLE9=Δασκαλάκης Μιχάλης-Σπυρόπουλος Νίκος - Η αλεπού [Ελένη Δασκαλάκη]
TTITLE10=Δασκαλάκης Μιχάλης-Σπυρόπουλος Νίκος - Σε διώξαν απ' την Κοκκινιά [Β.
TTITLE10=Τσιτσάνης-Ν. Μάθεσης]
TTITLE11=Δασκαλάκης Μιχάλης-Σπυρόπουλος Νίκος - Βάρκα μου μπογιατισμένη [Γιώργ
TTITLE11=ος Μπάτης]
TTITLE12=Δασκαλάκης Μιχάλης-Σπυρόπουλος Νίκος - Είναι ευτυχής ο άνθρωπος [Πανα
TTITLE12=γιώτης Τούντας]
TTITLE13=Δασκαλάκης Μιχάλης-Σπυρόπουλος Νίκος - Ζούλα κι αβέρτα εμπούκαρα [Ελέ
TTITLE13=νη Δασκαλάκη]
EXTD=
EXTT0=
EXTT1=
EXTT2=
EXTT3=
EXTT4=
EXTT5=
EXTT6=
EXTT7=
EXTT8=
EXTT9=
EXTT10=
EXTT11=
EXTT12=
EXTT13=
PLAYORDER=
